<?xml version="1.0" encoding="UTF-8"?>
<svg width="210px" height="40px" viewBox="0 0 210 40" version="1.1" xmlns="http://www.w3.org/2000/svg" xmlns:xlink="http://www.w3.org/1999/xlink">
    <!-- Generator: Sketch 50.2 (55047) - http://www.bohemiancoding.com/sketch -->
    <title>Logo</title>
    <desc>Created with Sketch.</desc>
    <defs>
        <linearGradient x1="40.155592%" y1="14.2932049%" x2="52.6650888%" y2="90.8562379%" id="linearGradient-1">
            <stop stop-color="#F7F7F7" offset="0%"></stop>
            <stop stop-color="#EBEBEB" offset="54.4029986%"></stop>
            <stop stop-color="#F3F3F3" offset="100%"></stop>
        </linearGradient>
        <path d="M0.187869822,0.110344828 C0.0597454602,0.557335623 0.00965040735,1.02442881 0.0399408284,1.48965517 C0.0478303748,1.57547893 0.0552268245,1.64750958 0.0621301775,1.70574713 C0.0977609504,1.94347336 0.171245495,2.1734204 0.279585799,2.3862069 C0.345371518,2.52125287 0.422597622,2.64998277 0.51035503,2.77088123 C0.701433019,3.02604995 0.943696976,3.23520759 1.2204142,3.38390805 C1.56331443,3.57789233 1.93304688,3.71591385 2.31656805,3.79310345 C2.4556213,3.81915709 2.59467456,3.83601533 2.73372781,3.851341 C2.91568047,3.87126437 3.12573964,3.88659004 3.37721893,3.90344828 L3.50443787,3.83448276 C3.67887305,3.73832451 3.81734971,3.58461314 3.89792899,3.39770115 C3.93777043,3.2936219 3.95249615,3.18104267 3.9408284,3.0697318 C3.9205206,2.72566431 3.87101992,2.38411642 3.79289941,2.04904215 C3.77159518,1.95910704 3.74238031,1.87138389 3.7056213,1.78697318 C3.59322304,1.89095258 3.47020675,1.98191256 3.3387574,2.05823755 L3.29142012,2.08582375 C3.11734176,2.18846806 2.93277263,2.27071169 2.74112426,2.33103448 C2.39221868,2.43544079 2.02143938,2.43171135 1.67455621,2.32030651 C1.40090333,2.25426074 1.1444494,2.12716878 0.923076923,1.94789272 C0.84251397,1.87461425 0.770523335,1.79180096 0.708579882,1.70114943 C0.397928994,1.24137931 0.292899408,0.649808429 0.205621302,0.111877395 C0.202676605,0.11145746 0.199690259,0.11145746 0.196745562,0.111877395 C0.193936958,0.110497176 0.190678427,0.110497176 0.187869822,0.111877395" id="path-2"></path>
        <filter x="-12.8%" y="-13.2%" width="125.6%" height="126.4%" filterUnits="objectBoundingBox" id="filter-3">
            <feGaussianBlur stdDeviation="0.5" in="SourceAlpha" result="shadowBlurInner1"></feGaussianBlur>
            <feOffset dx="0" dy="0" in="shadowBlurInner1" result="shadowOffsetInner1"></feOffset>
            <feComposite in="shadowOffsetInner1" in2="SourceAlpha" operator="arithmetic" k2="-1" k3="1" result="shadowInnerInner1"></feComposite>
            <feColorMatrix values="0 0 0 0 1   0 0 0 0 1   0 0 0 0 1  0 0 0 1 0" type="matrix" in="shadowInnerInner1"></feColorMatrix>
        </filter>
        <linearGradient x1="16386%" y1="18609.407%" x2="16398%" y2="18566.8421%" id="linearGradient-4">
            <stop stop-color="#F7F7F7" offset="0%"></stop>
            <stop stop-color="#EBEBEB" offset="54%"></stop>
            <stop stop-color="#F3F3F3" offset="100%"></stop>
        </linearGradient>
        <path d="M0.099112426,13.2628352 L1.13461538,13.2628352 C2.29585799,12.1532567 4.86390533,8.4045977 6.31213018,8.61609195 L6.40384615,8.4045977 C6.51183432,8.15478927 9.32100592,1.7302682 9.63313609,1.03141762 C9.18934911,0.821455939 9.13609467,0.790804598 9.07840237,0.761685824 L8.73224852,0.594636015 L8.41863905,0.44137931 L8.10798817,0.288122605 L7.87721893,0.176245211 L7.64349112,0.0643678161 C7.3091716,0.645210728 0.576923077,12.4321839 0.099112426,13.2628352 Z" id="path-5"></path>
        <filter x="-5.2%" y="-3.8%" width="110.5%" height="107.6%" filterUnits="objectBoundingBox" id="filter-6">
            <feGaussianBlur stdDeviation="0.5" in="SourceAlpha" result="shadowBlurInner1"></feGaussianBlur>
            <feOffset dx="0" dy="0" in="shadowBlurInner1" result="shadowOffsetInner1"></feOffset>
            <feComposite in="shadowOffsetInner1" in2="SourceAlpha" operator="arithmetic" k2="-1" k3="1" result="shadowInnerInner1"></feComposite>
            <feColorMatrix values="0 0 0 0 1   0 0 0 0 1   0 0 0 0 1  0 0 0 1 0" type="matrix" in="shadowInnerInner1"></feColorMatrix>
        </filter>
        <linearGradient x1="45.4897186%" y1="-5.58859975%" x2="54.4872835%" y2="79.3903346%" id="linearGradient-7">
            <stop stop-color="#CDCDCD" offset="0%"></stop>
            <stop stop-color="#E3E3E3" offset="100%"></stop>
        </linearGradient>
        <linearGradient x1="16326%" y1="12058.7783%" x2="16339%" y2="12031.2377%" id="linearGradient-8">
            <stop stop-color="#F7F7F7" offset="0%"></stop>
            <stop stop-color="#EBEBEB" offset="54%"></stop>
            <stop stop-color="#F3F3F3" offset="100%"></stop>
        </linearGradient>
        <linearGradient x1="16199%" y1="31143.87%" x2="16208%" y2="31064.3292%" id="linearGradient-9">
            <stop stop-color="#CDCDCD" offset="0%"></stop>
            <stop stop-color="#E3E3E3" offset="100%"></stop>
        </linearGradient>
        <linearGradient x1="47.4415637%" y1="9.72465362%" x2="55.4452635%" y2="90.1162398%" id="linearGradient-10">
            <stop stop-color="#F7F7F7" offset="0%"></stop>
            <stop stop-color="#F3F3F3" offset="26%"></stop>
            <stop stop-color="#E5E5E5" offset="54%"></stop>
            <stop stop-color="#F3F3F3" offset="100%"></stop>
        </linearGradient>
        <linearGradient x1="20.4079031%" y1="48.1840493%" x2="37.3984615%" y2="52.1839863%" id="linearGradient-11">
            <stop stop-color="#F7F7F7" offset="0%"></stop>
            <stop stop-color="#EBEBEB" offset="52%"></stop>
            <stop stop-color="#ECECEC" offset="100%"></stop>
        </linearGradient>
        <linearGradient x1="21.4041776%" y1="42.4949798%" x2="38.8366275%" y2="46.5991285%" id="linearGradient-12">
            <stop stop-color="#F7F7F7" offset="0%"></stop>
            <stop stop-color="#EBEBEB" offset="51.9350614%"></stop>
            <stop stop-color="#ECECEC" offset="100%"></stop>
        </linearGradient>
        <path d="M0.152366864,12.4229885 C0.127218935,12.743295 0.143491124,14.2712644 1.53846154,14.7034483 C4.13313609,15.5065134 7.9556213,13.2015326 8.93491124,9.53256705 C9.29733728,6.74482759 8.47189349,4.16858238 8.40976331,3.91570881 C8.28994083,3.91570881 4.31508876,1.02222222 4.31508876,1.02222222 C4.13396456,1.44827001 3.98557496,1.8884614 3.87130178,2.33869732 L0.152366864,12.4229885 Z" id="path-13"></path>
        <filter x="-5.6%" y="-3.6%" width="111.3%" height="107.2%" filterUnits="objectBoundingBox" id="filter-14">
            <feGaussianBlur stdDeviation="0.5" in="SourceAlpha" result="shadowBlurInner1"></feGaussianBlur>
            <feOffset dx="0" dy="0" in="shadowBlurInner1" result="shadowOffsetInner1"></feOffset>
            <feComposite in="shadowOffsetInner1" in2="SourceAlpha" operator="arithmetic" k2="-1" k3="1" result="shadowInnerInner1"></feComposite>
            <feColorMatrix values="0 0 0 0 1   0 0 0 0 1   0 0 0 0 1  0 0 0 1 0" type="matrix" in="shadowInnerInner1"></feColorMatrix>
        </filter>
        <linearGradient x1="42.5304136%" y1="12.2719009%" x2="54.530941%" y2="89.2743503%" id="linearGradient-15">
            <stop stop-color="#F0F0F0" offset="0%"></stop>
            <stop stop-color="#B8B8B8" offset="34%"></stop>
            <stop stop-color="#D7D7D7" offset="100%"></stop>
        </linearGradient>
        <linearGradient x1="40.155592%" y1="14.2932049%" x2="52.6028482%" y2="90.4753007%" id="linearGradient-16">
            <stop stop-color="#F0F0F0" offset="0%"></stop>
            <stop stop-color="#B8B8B8" offset="34.4743497%"></stop>
            <stop stop-color="#D7D7D7" offset="100%"></stop>
        </linearGradient>
        <path d="M1.70857988,14.3984674 C4.30325444,15.2015326 7.9556213,13.1984674 8.93047337,9.52950192 C9.29289941,6.74176245 8.46745562,4.16551724 8.40532544,3.91264368 C8.28550296,3.91264368 5.78994083,2.55172414 5.78994083,2.55172414 C5.71005917,2.72183908 4.98076923,5.56934866 3.87721893,8.56245211 C2.97485207,11.0114943 0.315088757,13.9693487 1.70857988,14.3984674 Z" id="path-17"></path>
        <filter x="-6.5%" y="-4.2%" width="113.0%" height="108.3%" filterUnits="objectBoundingBox" id="filter-18">
            <feGaussianBlur stdDeviation="0.5" in="SourceAlpha" result="shadowBlurInner1"></feGaussianBlur>
            <feOffset dx="0" dy="0" in="shadowBlurInner1" result="shadowOffsetInner1"></feOffset>
            <feComposite in="shadowOffsetInner1" in2="SourceAlpha" operator="arithmetic" k2="-1" k3="1" result="shadowInnerInner1"></feComposite>
            <feColorMatrix values="0 0 0 0 1   0 0 0 0 1   0 0 0 0 1  0 0 0 1 0" type="matrix" in="shadowInnerInner1"></feColorMatrix>
        </filter>
        <linearGradient x1="78.2416711%" y1="30.7422855%" x2="50%" y2="79.6310016%" id="linearGradient-19">
            <stop stop-color="#FFFFFF" offset="0%"></stop>
            <stop stop-color="#EBEBEB" offset="54.4029986%"></stop>
            <stop stop-color="#FFFFFF" offset="100%"></stop>
        </linearGradient>
        <path d="M5.43491124,0.0279768296 C5.10184079,0.108296803 4.79825349,0.286578644 4.56065089,0.541386791 C4.468248,0.645806374 4.39010381,0.76286114 4.32840237,0.889279512 C4.2795858,0.982766102 4.27218935,0.981233535 4.33579882,1.05632932 C4.39940828,1.13142511 4.43639053,1.17586955 4.48372781,1.23257453 C4.91863905,1.71533315 5.37130178,2.18123353 5.85650888,2.61188488 C6.38313609,3.0900458 6.9408284,3.53142511 7.49852071,3.97586955 C7.99105998,4.37117823 8.5101218,4.72968223 9.05177515,5.04866648 C9.32100592,5.2029449 9.59566075,5.34751706 9.87573964,5.48238296 C10.0502959,5.56820671 10.362426,5.80422204 10.5281065,5.58813009 C10.6671598,5.40422204 10.6494083,5.08851323 10.6449704,4.87088871 C10.6333883,4.57004365 10.6047393,4.27016457 10.5591716,3.97280442 C10.510355,3.62644426 10.4526627,3.28008411 10.3846154,2.93678909 C10.341716,2.72529484 10.3136095,2.36973928 10.1612426,2.20422204 C10.0556916,2.11853447 9.93982746,2.0474396 9.81656805,1.99272779 L9.5443787,1.83334081 L9.28254438,1.68008411 C8.75591716,1.3735707 8.23076923,1.05019905 7.69970414,0.742153075 C7.03846154,0.359011312 6.2204142,-0.12834501 5.43786982,0.0310419636" id="path-20"></path>
        <filter x="-7.9%" y="-8.8%" width="115.7%" height="117.6%" filterUnits="objectBoundingBox" id="filter-21">
            <feGaussianBlur stdDeviation="0.5" in="SourceAlpha" result="shadowBlurInner1"></feGaussianBlur>
            <feOffset dx="0" dy="0" in="shadowBlurInner1" result="shadowOffsetInner1"></feOffset>
            <feComposite in="shadowOffsetInner1" in2="SourceAlpha" operator="arithmetic" k2="-1" k3="1" result="shadowInnerInner1"></feComposite>
            <feColorMatrix values="0 0 0 0 1   0 0 0 0 1   0 0 0 0 1  0 0 0 1 0" type="matrix" in="shadowInnerInner1"></feColorMatrix>
        </filter>
    </defs>
    <g id="Page-1" stroke="none" stroke-width="1" fill="none" fill-rule="evenodd">
        <g id="Artboard" transform="translate(-20.000000, -20.000000)">
            <g id="TitleBar" transform="translate(20.000000, 0.000000)">
                <g id="Logo" transform="translate(0.000000, 20.000000)">
                    <text id="数据产品平台部" font-family="MicrosoftYaHei, Microsoft YaHei" font-size="20" font-weight="normal" line-spacing="30" fill="#FFFFFF">
                        <tspan x="70" y="26">数据产品平台部</tspan>
                    </text>
                    <g id="Joy" fill-rule="nonzero">
                        <g id="尾巴" transform="translate(21.597633, 30.957854)">
                            <g>
                                <use fill="url(#linearGradient-1)" fill-rule="evenodd" xlink:href="#path-2"></use>
                                <use fill="black" fill-opacity="1" filter="url(#filter-3)" xlink:href="#path-2"></use>
                            </g>
                        </g>
                        <g id="身子" transform="translate(20.857988, 26.666667)">
                            <g id="SVGID">
                                <path d="M0.099112426,13.2628352 L1.13461538,13.2628352 C2.29585799,12.1532567 4.86390533,8.4045977 6.31213018,8.61609195 L6.40384615,8.4045977 C6.51183432,8.15478927 9.32100592,1.7302682 9.63313609,1.03141762 C9.18934911,0.821455939 9.13609467,0.790804598 9.07840237,0.761685824 L8.73224852,0.594636015 L8.41863905,0.44137931 L8.10798817,0.288122605 L7.87721893,0.176245211 L7.64349112,0.0643678161 C7.3091716,0.645210728 0.576923077,12.4321839 0.099112426,13.2628352 Z" id="path-4" fill="url(#linearGradient-4)"></path>
                                <g id="path-4-2">
                                    <use fill="url(#linearGradient-1)" fill-rule="evenodd" xlink:href="#path-5"></use>
                                    <use fill="black" fill-opacity="1" filter="url(#filter-6)" xlink:href="#path-5"></use>
                                </g>
                            </g>
                            <path d="M0.838757396,13.2628352 L1.13461538,13.2628352 C1.93343195,12.3785441 3.38017751,10.7770115 4.10650888,9.97701149 C4.40019539,9.64653294 4.72980311,9.3523676 5.0887574,9.10038314 C5.54289941,8.7862069 5.97633136,8.61609195 6.30621302,8.61609195 L6.30621302,7.77471264 L5.65384615,7.0789272 C2.76232742,10.647765 1.15729783,12.7090677 0.838757396,13.2628352 Z" id="shadows" fill="url(#linearGradient-7)"></path>
                            <path d="M7.41715976,0.0904214559 C6.57877484,1.95320414 4.14805537,6.34656301 0.125001357,13.2704981 L0.810590606,13.2704981 C3.93924375,9.04946431 5.60642361,7.0979956 5.81213018,7.41609195 C5.93366036,7.89850707 5.99579075,8.39491335 5.99704142,8.89348659 C6.01627219,9.43908046 5.99704142,9.98467433 5.97633136,10.5302682 C5.95414201,11.0222222 5.9260355,11.5141762 5.89792899,12.0061303 C5.87426036,12.4275862 5.86538462,12.8490421 5.8387574,13.2704981 L7.06213018,13.2704981 C7.27810651,12.4291188 7.49556213,11.5770115 7.78402367,10.7555556 C7.99677065,10.1023758 8.28485073,9.47819242 8.64201183,8.89655172 C8.87573964,8.5348659 9.21893491,8.1302682 9.67751479,8.15938697 C10.0088757,8.17777778 10.3210059,8.39386973 10.6331361,9.0651341 C10.9748521,9.80229885 11.3180473,11.0896552 11.683432,13.2704981 L13.0147929,13.2704981 L13.0147929,0.0904214559 L7.41715976,0.0904214559 Z" fill="url(#linearGradient-8)"></path>
                            <path d="M6.5443787,13.2704981 L7.06213018,13.2704981 C7.27810651,12.4291188 8.27218935,9.46666667 8.64201183,8.89655172 C8.87573964,8.5348659 9.21893491,8.1302682 9.67751479,8.15938697 C10.0088757,8.17777778 10.3210059,8.39386973 10.6331361,9.0651341 C10.9748521,9.80229885 11.3180473,11.0896552 11.683432,13.2704981 L12.091716,13.2704981 C12.2485207,13.2704981 11.8136095,7.29348659 9.96745562,7.29348659 C8.12130178,7.29348659 6.44674556,13.2689655 6.5443787,13.2704981 Z" id="shadows" fill="url(#linearGradient-9)"></path>
                        </g>
                        <g id="头部" transform="translate(9.467456, 0.000000)">
                            <path d="M17.7485207,1.32413793 C11.3653846,2.73103448 -5.92011834,8.83371648 2.19822485,17.9800766 C8.26331361,24.8199234 19.5946746,29.0559387 28.0147929,25.0467433 C31.7840237,23.2521073 35.1242604,20.4091954 37.3846154,16.7877395 C39.4289941,13.5157088 42.2278107,6.48275862 38.9822485,3.10344828 C34.5118343,-1.54942529 23.4008876,0.0766283525 17.7485207,1.32413793 Z" id="脑袋" fill="url(#linearGradient-10)"></path>
                            <path d="M17.0991124,5.4697318 C16.5864089,5.73368161 16.3049956,6.31802969 16.4097633,6.90114943 C16.5581941,7.48244413 17.036918,7.90894996 17.6139053,7.97394636 C18.1940809,8.06378306 18.7716868,7.79569603 19.0931953,7.28735632 C19.380696,6.78885117 19.3058246,6.1519116 18.9112426,5.7394636 C18.4290858,5.25192896 17.6988662,5.14120382 17.102071,5.4651341" id="眼睛" fill="#3C3B39"></path>
                            <path d="M32.0621302,1.70421456 C31.4808497,1.80135979 30.9196552,1.99982553 30.4023669,2.29118774 C29.9053254,2.59770115 29.4319527,3.14482759 29.8535503,3.7302682 C30.1775148,4.17931034 30.7544379,4.41532567 31.2529586,4.57777778 C31.8728615,4.77199894 32.5130587,4.88828708 33.1597633,4.92413793 C33.855774,4.97246814 34.5547405,4.94627584 35.2455621,4.84597701 C35.8672146,4.77308854 36.473824,4.59877587 37.0428994,4.32950192 C37.5281065,4.08122605 38.2100592,3.58007663 37.9127219,2.9302682 C37.6612426,2.37854406 36.9630178,2.08582375 36.433432,1.91417625 C35.0532544,1.46360153 33.4748521,1.43448276 32.0636095,1.70727969" id="鼻子" fill="#3C3B39"></path>
                            <path d="M21.2781065,26.6771647 C20.1106964,26.7096995 19.3647146,26.5674256 19.1250696,26.5367743 C19.0954838,26.5367743 19.0181347,26.5271043 18.8930222,26.5077645 L18.5700792,27.2730778 C18.5449313,27.368097 18.5961538,27.4360153 18.6863905,27.4712644 C18.8397981,27.5329333 18.9969391,27.5841284 19.1568047,27.6245211 C19.9916248,27.8324876 20.8486362,27.9293094 21.7071006,27.9126437 C22.5696435,27.9138262 23.4272552,27.7778895 24.25,27.5095785 C24.397929,27.4636015 24.397929,27.4819923 24.397929,27.3440613 L24.397929,26.2425945 C23.374577,26.4868144 22.4455166,26.64463 21.2781065,26.6771647 Z" id="项圈" fill="#C22521"></path>
                            <path d="M17.2559172,11.1203065 C17.1045261,11.2032761 16.9913067,11.3453477 16.9413294,11.5150619 C16.8913522,11.6847762 16.9087408,11.8681294 16.989645,12.0245211 C17.0723144,12.1837214 17.1647115,12.3372905 17.2662722,12.4842912 C17.765505,13.2308405 18.3630004,13.9014394 19.0414201,14.4766284 C20.1008466,15.3784108 21.2956461,16.0943956 22.5784024,16.5961686 C24.3231495,17.2663146 26.1597341,17.6444809 28.0192308,17.7164751 C30.2127844,17.8452674 32.4124878,17.62771 34.5428994,17.0712644 C35.4169934,16.8339501 36.2697468,16.5191226 37.091716,16.1302682 C37.2736686,16.0444444 37.4526627,15.9555556 37.6286982,15.862069 C37.7159763,15.816092 37.8017751,15.7701149 37.8860947,15.7226054 C37.9321943,15.7000113 37.9771269,15.6749455 38.0207101,15.6475096 C38.0718956,15.6082318 38.1117855,15.5552492 38.1360947,15.4942529 C38.3994083,14.9966794 38.6415187,14.4858238 38.862426,13.9616858 C38.9571006,13.7363985 39.0502959,13.5111111 39.1346154,13.2827586 C38.0256623,14.1938266 36.7791128,14.9089367 35.4452663,15.3992337 C33.7484619,16.0079434 31.9723317,16.3464057 30.1775148,16.4030651 C28.5090359,16.4915409 26.8364584,16.3607429 25.1997041,16.0137931 C23.3757396,15.610728 21.602071,14.867433 20.1213018,13.6766284 C19.5179215,13.1983683 18.9760513,12.6421328 18.5088757,12.0214559 C18.3892696,11.8625337 18.2776806,11.6973065 18.1745562,11.5264368 C18.1048522,11.371311 17.998517,11.2368993 17.8653846,11.1356322 C17.6806862,11.0234744 17.4539836,11.0148396 17.2618343,11.1126437" id="嘴" fill="#252322"></path>
                        </g>
                        <g id="耳朵" transform="translate(0.000000, 8.429119)">
                            <path d="M0.152366864,12.4229885 C0.127218935,12.743295 0.143491124,14.2712644 1.53846154,14.7034483 C4.13313609,15.5065134 7.9556213,13.2015326 8.93491124,9.53256705 C9.29733728,6.74482759 8.47189349,4.16858238 8.40976331,3.91570881 C8.28994083,3.91570881 4.31508876,1.02222222 4.31508876,1.02222222 C4.13396456,1.44827001 3.98557496,1.8884614 3.87130178,2.33869732" id="path-11" fill="url(#linearGradient-11)"></path>
                            <g id="path-11-2">
                                <use fill="url(#linearGradient-12)" fill-rule="evenodd" xlink:href="#path-13"></use>
                                <use fill="black" fill-opacity="1" filter="url(#filter-14)" xlink:href="#path-13"></use>
                            </g>
                            <path d="M1.70857988,14.3984674 C4.30325444,15.2015326 7.9556213,13.1984674 8.93047337,9.52950192 C9.29289941,6.74176245 8.46745562,4.16551724 8.40532544,3.91264368 C8.28550296,3.91264368 5.78994083,2.55172414 5.78994083,2.55172414 C5.71005917,2.72183908 4.98076923,5.56934866 3.87721893,8.56245211 C2.97485207,11.0114943 0.315088757,13.9693487 1.70857988,14.3984674 Z" id="path-14" fill="url(#linearGradient-15)"></path>
                            <g id="path-14-2">
                                <use fill="url(#linearGradient-16)" fill-rule="evenodd" xlink:href="#path-17"></use>
                                <use fill="black" fill-opacity="1" filter="url(#filter-18)" xlink:href="#path-17"></use>
                            </g>
                            <g id="path-17-2">
                                <use fill="url(#linearGradient-19)" fill-rule="evenodd" xlink:href="#path-20"></use>
                                <use fill="black" fill-opacity="1" filter="url(#filter-21)" xlink:href="#path-20"></use>
                            </g>
                        </g>
                    </g>
                </g>
            </g>
        </g>
    </g>
</svg>