<?xml version="1.0" encoding="UTF-8"?>
<svg width="100px" height="20px" viewBox="0 0 100 20" version="1.1" xmlns="http://www.w3.org/2000/svg" xmlns:xlink="http://www.w3.org/1999/xlink">
    <!-- Generator: Sketch 50.2 (55047) - http://www.bohemiancoding.com/sketch -->
    <title>sf-logo</title>
    <desc>Created with Sketch.</desc>
    <defs>
        <linearGradient x1="88.3731872%" y1="14.4312258%" x2="42.8929304%" y2="125.376028%" id="linearGradient-1">
            <stop stop-color="#01C4F6" offset="0%"></stop>
            <stop stop-color="#6080ED" offset="100%"></stop>
        </linearGradient>
    </defs>
    <g id="Page-1" stroke="none" stroke-width="1" fill="none" fill-rule="evenodd">
        <g id="Artboard" transform="translate(-20.000000, -481.000000)">
            <g id="card" transform="translate(20.000000, 481.000000)">
                <g id="sf-logo">
                    <g id="text" transform="translate(32.000000, 5.000000)" fill="#444444" fill-rule="nonzero">
                        <path d="M6.86833726,0.00211422975 C6.87874383,0.213158562 6.87874383,0.434252624 6.8891504,0.645296955 C8.63745443,0.705595336 10.3753519,0.655346685 12.1236559,0.675446146 C12.1236559,0.936739128 12.1236559,1.18798238 12.1236559,1.44927536 C8.08590613,1.44927536 4.03774978,1.44927536 0,1.44927536 C0,1.18798238 0,0.936739128 0,0.675446146 C1.74830403,0.655346685 3.49660806,0.695545606 5.23450551,0.655346685 C5.23450551,0.444302354 5.22409894,0.213158562 5.22409894,0.00211422975 C5.78605381,-0.00793550033 6.32719553,0.0222136899 6.86833726,0.00211422975 Z M18.9882772,0 C18.8629681,0.225641026 18.737659,0.451282051 18.6227923,0.676923077 C21.2333986,0.687179487 23.8544474,0.687179487 26.4650538,0.676923077 C26.4650538,0.687179487 26.4650538,1.50769231 26.4650538,1.4974359 C23.7082535,1.51794872 20.972338,1.46666667 18.2259801,1.51794872 C17.7456285,2.35897436 17.3488164,3.24102564 16.8893497,4.09230769 C17.7769558,4.1025641 18.664562,4.1025641 19.5521681,4.1025641 L19.5521681,2.17435897 C20.1265015,2.17435897 20.6903925,2.17435897 21.2647259,2.17435897 C21.2542835,2.82051282 21.2542835,3.46666667 21.2647259,4.1025641 C22.8310897,4.1025641 24.5540899,4.07179487 26.1204537,4.09230769 C26.1204537,4.1025641 26.1204537,4.92307692 26.1204537,4.92307692 C26.1204537,4.92307692 22.8833018,4.9025641 21.2647259,4.92307692 C21.2542835,5.92820513 21.2751683,6.93333333 21.2647259,7.93846154 C21.2438411,8.61538462 20.8783562,9.29230769 20.2622531,9.61025641 C19.6983621,9.8974359 19.0613741,9.98974359 18.4348286,10 L18.4348286,9.22051282 C18.9151802,9.18974359 19.499956,9.02564103 19.5417257,8.46153846 C19.6043803,7.28205128 19.5626106,6.1025641 19.5626106,4.92307692 C17.954477,4.93333333 16.3463435,4.93333333 14.73821,4.91282051 C15.3125434,3.77435897 15.9286465,2.65641026 16.4612102,1.4974359 C15.7511253,1.4974359 15.0514828,1.4974359 14.3413978,1.50769231 C14.3413978,1.23076923 14.3413978,0.953846154 14.3518403,0.687179487 C15.2081192,0.697435897 16.0539556,0.707692308 16.8997921,0.687179487 C17.0146588,0.461538462 17.1399679,0.225641026 17.265277,1.09314267e-15 C17.8291679,0 18.4139438,0 18.9882772,0 Z M11.827957,4.82765119 C10.2075866,4.83782816 8.58721625,4.82765119 6.95639188,4.84800513 C6.96684588,5.83517084 6.96684588,6.83251352 6.95639188,7.81967924 C6.96684588,8.38958934 6.69504182,8.96967641 6.21415771,9.30551629 C5.62873357,9.7227719 4.8760454,9.79401067 4.16517324,9.85507246 C4.16517324,9.59047134 4.16517324,9.33604719 4.16517324,9.07144607 C4.57287933,9.06126911 5.09557945,8.91879158 5.20011947,8.47100507 C5.39874552,7.27012307 5.26284349,6.04888713 5.3046595,4.83782816 C3.68428913,4.82765119 2.06391876,4.83782816 0.443548387,4.82765119 C0.464456392,3.89137031 0.454002389,2.96526639 0.454002389,2.02898551 C4.23835125,2.02898551 8.03315412,2.03916247 11.817503,2.02898551 C11.838411,2.95508943 11.817503,3.89137031 11.827957,4.82765119 Z M10.1448626,4.0134939 C10.1448626,3.61659222 10.1344086,3.21969054 10.1448626,2.82278887 C7.46863799,2.83296583 4.80286738,2.83296583 2.13709677,2.82278887 C2.13709677,3.21969054 2.13709677,3.61659222 2.13709677,4.0134939 C4.81332139,4.0134939 7.479092,4.02367087 10.1448626,4.0134939 Z M16.0693081,5.36231884 C16.6555633,5.39302103 17.2521038,5.35208478 17.838359,5.3725529 C17.8486442,5.41348916 17.8692146,5.47489353 17.8897849,5.51582978 C17.3858111,7.14304579 16.5115708,8.70885742 15.2156381,9.85507246 C14.9276531,9.8448384 14.6396681,9.8448384 14.3413978,9.8448384 C15.3287751,8.54511241 15.8327489,6.95883266 16.0693081,5.36231884 Z M8.57526882,5.3725529 C9.20632308,5.3725529 9.83737735,5.3725529 10.4684316,5.36231884 C10.6029186,6.45736357 10.8718925,7.56264237 11.378805,8.54511241 C11.5960532,9.00564524 11.9064077,9.4047737 12.1236559,9.85507246 C11.8443368,9.85507246 11.5753629,9.85507246 11.2960438,9.85507246 C9.96151917,8.68838929 9.07183611,7.06117329 8.57526882,5.3725529 Z M22.7688172,5.36686271 C23.3877219,5.36686271 24.0169417,5.356639 24.6461615,5.36686271 C24.8008877,6.98220927 25.3991623,8.51576614 26.3172043,9.85507246 C26.0283821,9.85507246 25.749875,9.85507246 25.4610528,9.85507246 C24.1407227,8.66912182 23.2329957,7.06399897 22.7688172,5.36686271 Z M33.1182796,1.44927536 C33.3083717,1.03519669 33.4456605,0.548654244 33.5301459,0 L34.5967742,0 C34.5017281,0.610766046 34.3538786,1.08695652 34.1321045,1.44927536 L33.1182796,1.44927536 Z M29.2953149,1.44927536 C29.0841014,1.08695652 28.9256912,0.610766046 28.8306452,0 L29.8972734,0 C29.9923195,0.548654244 30.1296083,1.03519669 30.3091398,1.44927536 L29.2953149,1.44927536 Z M47.1806376,1.5 L47.1806376,0.663265306 L50.1792746,0.663265306 L50.1792746,0 L51.9597153,0 L51.9597153,0.663265306 L55,0.663265306 L55,1.5 L50.116803,1.5 L50.116803,3.20408163 L54.3128124,3.20408163 L54.3128124,8.64285714 C54.3128124,9.58163265 53.7193321,10 52.1887778,10 L51.0122293,10 L51.0122293,9.28571429 C52.1367182,9.20408163 52.6885507,8.95918367 52.6885507,8.55102041 L52.6885507,4.07142857 L50.116803,4.07142857 C49.8981524,6.69387755 49.5649705,8.69387755 47.7637059,10 C47.1702257,10 46.8682796,10 46.8682796,10 C46.8682796,10 47.9407088,8.86734694 48.2010071,7.2755102 C48.4092458,6.54081633 48.4821293,4.8877551 48.4821293,3.33673469 L48.4821293,1.5 L47.1806376,1.5 Z M43.0362278,2.66200639 L43.0362278,1.87364296 L44.3259565,1.87364296 L44.3259565,0 L45.9461115,0 L45.9461115,1.87364296 L47.1825456,1.87364296 L47.1825456,2.66200639 L45.9461115,2.66200639 L45.9461115,6.69596992 C46.4151038,6.58334657 46.9160728,6.44000777 47.4596774,6.2659535 C47.4596774,6.71644689 47.4596774,6.94169359 47.4596774,6.94169359 C47.4596774,6.94169359 45.4877782,8.04745009 42.8763441,8.4057971 L42.8763441,7.17717877 C43.4199487,7.14646331 43.8995999,7.09527088 44.3366154,7.0031245 L44.3366154,2.66200639 L43.0362278,2.66200639 Z M34.5967742,4.49275362 C33.4049572,4.09453228 32.6549344,3.42061924 32.3672544,2.54249012 L32.2234144,2.54249012 L32.2234144,4.28853755 L30.9596774,4.28853755 L30.9596774,2.54249012 L30.764466,2.54249012 C30.476786,3.38998682 29.7267633,4.05368906 28.5349462,4.45191041 L28.5349462,3.81884058 C29.0794833,3.47167325 29.4699061,3.02239789 29.6959404,2.54249012 L28.5760434,2.54249012 L28.5760434,1.74604743 L30.9494031,1.74604743 L30.9494031,0 L32.2131401,0 L32.2131401,1.74604743 L34.4426599,1.74604743 L34.4426599,2.54249012 L33.4768772,2.54249012 C33.6412657,2.99176548 34.01114,3.44104084 34.5967742,3.81884058 L34.5967742,4.49275362 Z M36.3205987,0 L37.8514671,0 C37.8514671,0.102040816 37.7898214,0.469387755 37.7281757,0.653061224 L40.8207354,0.653061224 L40.8207354,1.51020408 L40.1837297,1.51020408 C40.1837297,3.45918367 40.1631812,5.20408163 38.7247813,7.41836735 C38.9199927,7.81632653 40.409764,9.67346939 40.9543011,10 C40.337844,10 40.0296155,10 40.0296155,10 C40.0296155,10 39.4028841,9.76530612 37.9028385,8.25510204 C37.4918671,8.70408163 36.5363587,9.62244898 35.7863359,10 C35.2007017,10 34.9027474,10 34.9027474,10 C34.9027474,10 36.7418444,8.25510204 37.09117,7.41836735 C36.4952615,6.47959184 35.9404502,5.42857143 35.6527702,3.73469388 L34.8924731,3.73469388 C36.043193,2.24489796 36.2178558,0.93877551 36.3205987,0 Z M37.9131128,6.2755102 C38.498747,5.47959184 38.9919127,3.74489796 38.8788956,1.51020408 C37.8925642,1.51020408 37.3993986,1.51020408 37.3993986,1.51020408 C37.3993986,1.51020408 37.1733643,2.14285714 36.5363587,2.98979592 L36.9062329,2.98979592 C37.0397986,4.3877551 37.4404957,5.48979592 37.9131128,6.2755102 Z M28.3870968,6.17336615 L28.3870968,5.36614712 L29.1270712,5.36614712 L29.1270712,4.63768116 L30.4089988,4.63768116 L30.4089988,5.36614712 L32.7748325,5.36614712 L32.7748325,4.63768116 L34.0567601,4.63768116 L34.0567601,5.36614712 L34.7446237,5.36614712 L34.7446237,6.17336615 L34.0046492,6.17336615 C33.9421162,7.23653268 33.514807,8.14219305 32.7227217,8.66393218 C32.8790543,8.80175007 33.6607174,9.15613891 34.2964701,9.26442439 L34.2964701,9.85507246 C33.2542526,9.81569593 32.3475234,9.53021602 31.5867046,9.12660651 C31.0968623,9.40224228 30.0754892,9.81569593 28.6059625,9.85507246 L28.6059625,9.26442439 C29.471003,9.12660651 30.0129561,8.86081488 30.4089988,8.62455565 C29.64818,8.07328411 29.2417151,7.187312 29.1791821,6.18321028 L28.3870968,6.18321028 L28.3870968,6.17336615 Z M31.5867046,8.11266065 C32.3058347,7.68936287 32.6601886,6.96089691 32.7227217,6.17336615 L30.4506875,6.17336615 C30.5236427,7.00027345 30.9301075,7.71889527 31.5867046,8.11266065 Z M0.825206302,8.3674237 C1.28938485,7.42705075 1.52663166,6.39468479 1.6504126,5.36231884 C2.27963241,5.36231884 2.90885221,5.36231884 3.5483871,5.36231884 C3.03263316,7.01819294 2.20742686,8.65362416 0.845836459,9.79842601 C0.577644411,9.90064046 0.278507127,9.82909034 0,9.84953323 C0.24756189,9.33846098 0.598274569,8.8887174 0.825206302,8.3674237 Z" id="Combined-Shape"></path>
                    </g>
                    <path d="M19.7520211,8.86597865 C20.0627644,8.41967747 20.559134,8.18123241 21.0649952,8.18133862 C21.3857694,8.18133862 21.7104266,8.2772477 21.9938814,8.4767131 C22.7240904,8.99098972 22.9045394,9.99893788 22.3969525,10.7277619 C22.1330202,11.106725 21.734695,11.3322122 21.3105913,11.392328 C20.7777652,11.571507 20.2958489,11.9141456 19.9496198,12.4111097 C19.5536675,12.9801915 19.4066549,13.648475 19.4806466,14.2897807 L19.4794601,14.288931 C19.5030814,14.6420846 19.4188431,15.0038413 19.2020454,15.31536 C18.8919493,15.7608115 18.3966583,15.9991503 17.89166,16 L17.884757,16 C17.5652771,15.9991503 17.2422378,15.9032412 16.9599694,15.7046255 C16.2295447,15.1903489 16.0490957,14.1828256 16.5570062,13.4535767 C16.7739117,13.1422705 17.0830371,12.938769 17.4210689,12.8403108 L17.4116851,12.8338319 C18.0368389,12.684286 18.6114066,12.3165814 19.0074668,11.7479244 C19.3590889,11.2431007 19.514083,10.6594679 19.4931583,10.0861376 C19.4156073,9.67478005 19.4950997,9.23495778 19.7520211,8.86597865 Z M22.7510553,13.9916447 C22.7510553,13.1073268 23.47846,12.3907171 24.3755277,12.3907171 C25.2729189,12.3907171 26,13.1073268 26,13.9916447 C26,14.8756439 25.2729189,15.5925723 24.3755277,15.5925723 C23.47846,15.5925723 22.7510553,14.8756439 22.7510553,13.9916447 Z M13.9001025,8.86597865 C14.2109536,8.41967747 14.7072153,8.18123241 15.2130765,8.18133862 C15.5338507,8.18133862 15.8585079,8.2772477 16.1419627,8.4767131 C16.8722796,8.99098972 17.0527286,9.99893788 16.5451417,10.7277619 C16.2812094,11.106725 15.8827763,11.3322122 15.4587805,11.392328 C14.9259544,11.571507 14.4439302,11.9141456 14.097809,12.4111097 C13.7018567,12.9801915 13.5547363,13.648475 13.62862,14.2897807 L13.6275414,14.288931 C13.6512705,14.6420846 13.5669244,15.0038413 13.3500189,15.31536 C13.0439135,15.755076 12.5574671,15.9912906 12.059156,15.9981944 C12.0463208,15.998513 12.0335933,15.9991503 12.0207581,15.9992565 C12.0080306,15.9991503 11.9953032,15.998513 11.9824679,15.9981944 C11.4842648,15.9912906 10.9976026,15.755076 10.6916051,15.31536 C10.4746996,15.0038413 10.3904613,14.6420846 10.4140825,14.288931 L10.4130039,14.2897807 C10.4365173,14.0851109 10.4166712,13.7234604 10.4126804,13.6719477 C10.4086896,13.6204351 10.4166712,13.6115133 10.4166712,13.580712 C10.4166712,12.5429183 9.68915865,11.70151 8.79209095,11.70151 C7.89513112,11.70151 7.16772647,12.5429183 7.16772647,13.580712 C7.16772647,13.699669 7.18034603,13.8460286 7.18584687,13.9357774 C7.19145556,14.0256324 7.19814286,14.169974 7.21205673,14.2897807 L7.21087028,14.288931 C7.23459938,14.6420846 7.15036108,15.0038413 6.93345557,15.31536 C6.62335943,15.7608115 6.12817634,15.9991503 5.62307017,16 L5.61616716,16 C5.2967951,15.9991503 4.97364796,15.9032412 4.69148743,15.7046255 C4.24257608,15.3885398 4.00129431,14.8862651 4,14.3766618 L4,14.36774 C4.00086288,14.0511232 4.09448495,13.7320635 4.28841638,13.4535767 C4.50532189,13.1422705 4.81444729,12.938769 5.15258691,12.8403108 L5.14309527,12.8338319 C5.7682491,12.684286 6.3428168,12.3165814 6.73887699,11.7479244 C7.09039119,11.2431007 7.24560105,10.6594679 7.22456844,10.0861376 C7.14701744,9.67478005 7.22650991,9.23495778 7.48343131,8.86597865 C7.78942879,8.42658123 8.27565954,8.19036661 8.77353912,8.18314422 C8.78648226,8.18282558 8.79953326,8.18229452 8.81247641,8.1820821 C8.82552741,8.18229452 8.83847055,8.18282558 8.8514137,8.18314422 C9.34929327,8.19036661 9.83552403,8.42658123 10.1414136,8.86597865 C10.3985508,9.23495778 10.4779354,9.67478005 10.4003844,10.0861376 C10.3922949,10.3080137 10.3881962,10.4664814 10.4338208,10.7611124 C10.5843927,11.7324176 11.2071736,12.4412738 12.0226995,12.4412738 C12.843187,12.4412738 13.4662914,11.7513232 13.6028416,10.7406135 C13.6444754,10.4320688 13.6491133,10.3018534 13.6412396,10.0861376 C13.5636886,9.67478005 13.6431811,9.23495778 13.9001025,8.86597865 Z M11.9545323,4 L11.9888316,4 C12.8780256,4.0091342 13.5961543,4.72255758 13.5961543,5.60092758 C13.5961543,6.48503301 12.8687497,7.20196137 11.971682,7.20196137 C11.0746143,7.20196137 10.3472096,6.48503301 10.3472096,5.60092758 C10.3472096,4.72255758 11.0654462,4.0091342 11.9545323,4 Z" id="Fill-4" fill="url(#linearGradient-1)"></path>
                </g>
            </g>
        </g>
    </g>
</svg>