<?xml version="1.0" encoding="UTF-8"?>
<svg width="100px" height="20px" viewBox="0 0 100 20" version="1.1" xmlns="http://www.w3.org/2000/svg" xmlns:xlink="http://www.w3.org/1999/xlink">
    <!-- Generator: Sketch 50.2 (55047) - http://www.bohemiancoding.com/sketch -->
    <title>sz-logo</title>
    <desc>Created with Sketch.</desc>
    <defs>
        <linearGradient x1="-44.0612867%" y1="-52.464%" x2="320.556183%" y2="442.064%" id="linearGradient-1">
            <stop stop-color="#0CBEFF" offset="0%"></stop>
            <stop stop-color="#057AFF" offset="50%"></stop>
            <stop stop-color="#0045FF" offset="89%"></stop>
        </linearGradient>
        <linearGradient x1="-47.1413043%" y1="-95.4543189%" x2="193.873188%" y2="257.291128%" id="linearGradient-2">
            <stop stop-color="#0CBEFF" offset="0%"></stop>
            <stop stop-color="#057AFF" offset="50%"></stop>
            <stop stop-color="#0045FF" offset="89%"></stop>
        </linearGradient>
        <linearGradient x1="-243.113692%" y1="-137.419911%" x2="390.480486%" y2="234.068993%" id="linearGradient-3">
            <stop stop-color="#0CBEFF" offset="0%"></stop>
            <stop stop-color="#057AFF" offset="50%"></stop>
            <stop stop-color="#0045FF" offset="89%"></stop>
        </linearGradient>
        <linearGradient x1="-95.9349593%" y1="-256.665969%" x2="539.430894%" y2="948.271994%" id="linearGradient-4">
            <stop stop-color="#0CBEFF" offset="0%"></stop>
            <stop stop-color="#057AFF" offset="50%"></stop>
            <stop stop-color="#0045FF" offset="89%"></stop>
        </linearGradient>
        <linearGradient x1="-168.985064%" y1="-203.090909%" x2="436.592956%" y2="564.991736%" id="linearGradient-5">
            <stop stop-color="#0CBEFF" offset="0%"></stop>
            <stop stop-color="#057AFF" offset="50%"></stop>
            <stop stop-color="#0045FF" offset="89%"></stop>
        </linearGradient>
    </defs>
    <g id="Page-1" stroke="none" stroke-width="1" fill="none" fill-rule="evenodd">
        <g id="Artboard" transform="translate(-20.000000, -150.000000)" fill-rule="nonzero">
            <g id="Group-2" transform="translate(20.000000, 150.000000)">
                <g id="logo">
                    <g transform="translate(7.000000, 2.000000)" id="Shape">
                        <path d="M7.88,5.06072591 C8.65714286,4.12355444 6.50857143,2.20235294 4.08571429,1.07774718 C1.98285714,2.29607009 0.565714286,4.45156446 0.291428571,6.93506884 C4.49714286,6.56020025 7.10285714,5.99789737 7.88,5.06072591 Z" fill="url(#linearGradient-1)"></path>
                        <path d="M9.02285714,7.35679599 C6.82857143,6.37276596 2.85142857,8.15339174 0.337142857,9.51229036 C1.16,13.8232791 5.27428571,16.6347935 9.48,15.7444806 C10.76,15.4633292 11.9485714,14.9010263 12.9542857,14.057572 C12.3142857,11.2460576 11.1714286,8.34082603 9.02285714,7.35679599 Z" fill="url(#linearGradient-2)"></path>
                        <path d="M14.4628571,12.3238048 C15.6971429,10.4026033 16.0628571,8.01281602 15.4685714,5.76360451 C13.0914286,5.38873592 9.29714286,4.77957447 14.4628571,12.3238048 Z" fill="url(#linearGradient-3)"></path>
                        <path d="M11.6285714,0.937171464 C9.89142857,0 7.92571429,-0.234292866 6.00571429,0.234292866 C8.2,2.48350438 9.66285714,4.87329161 11.6285714,0.937171464 Z" fill="url(#linearGradient-4)"></path>
                        <path d="M11.8114286,4.35784731 C12.3142857,4.73271589 13.64,4.63899875 14.92,4.45156446 C14.4171429,3.42067584 13.7314286,2.53036295 12.8628571,1.78062578 C11.9028571,2.53036295 10.8057143,3.65496871 11.8114286,4.35784731 Z" fill="url(#linearGradient-5)"></path>
                    </g>
                    <path d="M44.0660793,10.0871986 L44.0660793,7.20595337 L32.4361233,7.20595337 L32.4361233,10.0871986 L37.3788546,10.0871986 L37.3788546,12.8333854 C37.3788546,13.3285995 37.2819383,13.5987162 37.0881057,13.7337746 C36.845815,13.9138524 36.5550661,14.0038913 36.215859,13.9588718 L36.215859,14.8142415 C36.9911894,14.859261 37.7665198,14.6341637 38.3964758,14.2289886 C38.8810573,13.778794 39.123348,13.1485216 39.0748899,12.5182492 L39.0748899,10.0421791 L44.0660793,10.0871986 Z M34.0837004,9.18680946 L34.0837004,8.1063425 L42.3700441,8.1063425 L42.3700441,9.18680946 L34.0837004,9.18680946 Z M68.6343612,8.8266538 C68.9735683,9.54696511 69.6035242,10.0421791 70.3788546,10.4023348 L70.3788546,10.9875877 C69.9911894,10.9425683 69.8942731,10.8525293 69.5550661,10.7624904 L69.5550661,13.3285995 L63.5462555,13.3285995 L63.5462555,10.7624904 C63.2070485,10.8525293 62.9647577,10.9425683 62.6255507,10.9875877 L62.6255507,14.9042804 L61.123348,14.9042804 L61.123348,7.88124522 L63.3524229,7.88124522 C63.061674,7.70116739 62.9162996,7.02587554 62.8678414,6.93583663 L64.5638767,6.93583663 C64.660793,7.25097283 64.7577093,7.56610902 64.9515419,7.88124522 L68.7797357,7.88124522 C68.9735683,7.61112848 69.1189427,7.25097283 69.1674009,6.93583663 L70.8634361,6.93583663 C70.7665198,7.25097283 70.6211454,7.56610902 70.4273128,7.88124522 L72.7048458,7.88124522 L72.7048458,12.6983271 C72.753304,13.3285995 72.5110132,13.9588718 72.0264317,14.4090664 C71.3964758,14.8142415 70.6211454,15.0393388 69.845815,14.9943193 L69.845815,14.0939302 C70.185022,14.1389497 70.4757709,14.0489108 70.7180617,13.8688329 C70.9118943,13.7337746 71.0088106,13.4636578 71.0088106,12.9684438 L71.0088106,8.8266538 L68.6343612,8.8266538 Z M67.0352423,8.8266538 L66.1629956,8.8266538 C65.8722467,9.54696511 65.2422907,10.0871986 64.5154185,10.4473542 L68.6828194,10.4473542 C67.9559471,10.0871986 67.3744493,9.54696511 67.0352423,8.8266538 Z M64.5638767,8.8266538 L62.6255507,8.8266538 L62.6255507,10.4023348 C62.6255507,10.4023348 64.1277533,9.90712076 64.5638767,8.8266538 Z M39.0748899,5 L39.0748899,5.7203113 L44.4537445,5.7203113 L44.4537445,6.62070043 L32,6.62070043 L32,5.7203113 L37.3788546,5.7203113 L37.3788546,5 L39.0748899,5 Z M32.969163,14.5441248 L32,14.5441248 C32.9207048,13.28358 33.5022026,11.8879768 33.7444934,10.4023348 L35.6343612,10.4023348 C35.1982379,11.9780158 34.277533,13.4186384 32.969163,14.5441248 Z M43.4845815,14.5441248 C42.1762115,13.4636578 41.2555066,11.9780158 40.8193833,10.4023348 L42.7092511,10.4023348 C42.9515419,11.8879768 43.5330396,13.3285995 44.4537445,14.5441248 L43.4845815,14.5441248 Z M47.2643172,14.5441248 L46.2951542,14.5441248 C47.215859,13.28358 47.845815,11.8879768 48.0396476,10.4023348 L49.9779736,10.4023348 C49.5418502,11.9780158 48.5726872,13.4186384 47.2643172,14.5441248 Z M55.1145374,10.4023348 L57.0044053,10.4023348 C57.1982379,11.8879768 57.8281938,13.3285995 58.7488987,14.5441248 L57.7797357,14.5441248 C56.4713656,13.4636578 55.5506608,11.9780158 55.1145374,10.4023348 Z M51.2378855,5.04501946 L50.8986784,5.63027239 L58.9427313,5.63027239 L58.9427313,6.53066152 L50.4140969,6.53066152 L49.1057269,9.14179 L51.9647577,9.14179 L51.9647577,7.20595337 L53.7092511,7.20595337 L53.7092511,9.14179 L58.5550661,9.14179 L58.5550661,10.0421791 L53.7092511,10.0421791 L53.7092511,12.5182492 C53.7577093,13.1485216 53.5154185,13.778794 53.030837,14.2289886 C52.4008811,14.6791831 51.6255507,14.9042804 50.8502203,14.859261 L50.8502203,14.0038913 C51.1894273,14.0489108 51.4801762,13.9588718 51.722467,13.778794 C51.9162996,13.6437357 52.0132159,13.4186384 52.0132159,12.8784049 L52.0132159,10.132218 L46.9735683,10.132218 L48.7180617,6.62070043 L46.5374449,6.62070043 L46.5374449,5.7203113 L49.154185,5.7203113 L49.4933921,5.04501946 L51.2378855,5.04501946 Z M67.7136564,5.76533076 L73.1894273,5.76533076 L73.1894273,6.57568098 L60.9295154,6.57568098 L60.9295154,5.76533076 L65.7268722,5.76533076 L65.7268722,5 L67.7136564,5 L67.7136564,5.76533076 Z M64.9515419,12.4732298 L68.1497797,12.4732298 L68.1497797,11.1676655 L64.9515419,11.1676655 L64.9515419,12.4732298 Z M81.9603524,9.36688728 L81.9603524,5.45019457 L87,5.45019457 L87,9.36688728 L81.9603524,9.36688728 Z M83.4625551,6.17050587 L83.4625551,8.60155652 L85.7400881,8.60155652 L85.7400881,6.17050587 L83.4625551,6.17050587 Z M78.6167401,8.1063425 C78.277533,8.8266538 77.8414097,9.54696511 77.2599119,10.132218 L86.7092511,10.132218 L86.7092511,14.9943193 L76.3876652,14.9943193 L76.3876652,11.0326072 C76.339207,11.1226461 76.2907489,11.212685 76.1938326,11.2577045 L75.1762115,11.2577045 C75.9030837,10.3122959 76.4845815,9.23182891 76.9207048,8.15136196 L75.1277533,8.15136196 L75.1277533,7.25097283 L77.1629956,7.25097283 C77.30837,6.80077826 77.3568282,6.48564206 77.3568282,6.48564206 L75.1277533,6.48564206 L75.4669604,5.76533076 L75.8061674,5 L77.5022026,5 L77.1629956,5.76533076 L81.5242291,5.76533076 L81.5242291,6.48564206 L79.1497797,6.48564206 C79.1013216,6.7557588 79.0044053,7.02587554 78.907489,7.25097283 L81.7665198,7.25097283 L81.7665198,8.1063425 L80.845815,8.1063425 C81.0881057,8.69159543 81.4273128,9.23182891 81.814978,9.72704293 L80.7488987,9.72704293 C80.1189427,9.05175109 79.5374449,8.19638141 79.3920705,8.1063425 L78.6167401,8.1063425 Z M78.2290749,10.9875877 L78.2290749,12.293152 L84.9162996,12.293152 L84.9162996,10.9875877 L78.2290749,10.9875877 Z M78.2290749,13.0134633 L78.2290749,14.0939302 L84.9162996,14.0939302 L84.9162996,13.0134633 L78.2290749,13.0134633 Z" id="text" fill="#444444"></path>
                </g>
            </g>
        </g>
    </g>
</svg>