<?xml version="1.0" encoding="UTF-8"?>
<svg width="100px" height="20px" viewBox="0 0 100 20" version="1.1" xmlns="http://www.w3.org/2000/svg" xmlns:xlink="http://www.w3.org/1999/xlink">
    <!-- Generator: Sketch 50.2 (55047) - http://www.bohemiancoding.com/sketch -->
    <title>zh-logo</title>
    <desc>Created with Sketch.</desc>
    <defs></defs>
    <g id="Page-1" stroke="none" stroke-width="1" fill="none" fill-rule="evenodd">
        <g id="Artboard" transform="translate(-20.000000, -351.000000)" fill-rule="nonzero">
            <g id="cardGroup" transform="translate(20.000000, 351.000000)">
                <g id="zh-logo">
                    <g id="品牌纵横logo" transform="translate(9.000000, 0.000000)">
                        <polygon id="形状_5" fill="#65D4FA" points="6.56623377 6.78868552 12.8979592 10.249584 6.56623377 13.5440932"></polygon>
                        <polyline id="形状_11" fill="#0E32BA" points="0 3.69384359 6.59973496 0 6.59973496 6.88851913 0 3.76039933"></polyline>
                        <polygon id="形状_3" fill="#2F48E5" points="0 3.69384359 0 16.4459235 6.59973496 20 6.59973496 6.8296173"></polygon>
                        <polygon id="形状_10" fill="#3A8AF7" points="6.59973496 0 12.8979592 3.68186356 12.8979592 10.249584 6.59973496 6.83294509"></polygon>
                    </g>
                    <g id="text" transform="translate(32.000000, 5.000000)" fill="#333333">
                        <path d="M2.91390728,3.30063458 L8.40616722,3.30063458 C9.03083609,3.32923008 9.32359272,3.0861684 9.28443709,2.57144956 L9.28443709,1.45837006 L2.91390728,1.45837006 L2.91390728,3.30063458 Z M1.18377483,4.11775075 L1.18377483,0.686291792 L10.9271523,0.686291792 L10.9271523,2.72629414 C10.9271523,3.767313 10.5255795,4.11775075 9.15831954,4.11775075 L1.18377483,4.11775075 Z M0,9.52229861 L0,4.84693578 L5.37251656,4.84693578 L5.37251656,8.05363417 C5.41045806,9.06334097 4.78199503,9.55246685 3.48712748,9.52101181 L0,9.52229861 Z M1.59354305,8.66443387 L3.03137417,8.66443387 C3.56407285,8.66443387 3.77897351,8.49286092 3.77897351,8.03304542 L3.77897351,5.66190728 L1.59354305,5.66190728 L1.59354305,8.66443387 Z M8.28642384,8.66443387 L9.82305464,8.66443387 C10.3270695,8.66443387 10.5629139,8.47527469 10.5629139,8.03304542 L10.5629139,5.66190728 L8.28642384,5.66190728 L8.28642384,8.66443387 Z M6.69288079,9.52229861 L6.69288079,4.84693578 L12.156457,4.84693578 L12.156457,8.05363417 C12.1943985,9.06334097 11.5873344,9.55246685 10.3352649,9.52101181 L6.69288079,9.52229861 Z M35.3092715,10 L34.3986755,10 C34.3986755,10 36.9205712,6.99747341 36.9205712,1.91591163 L36.9205712,0.0916622598 L38.6507036,0.0916622598 L38.6507036,1.95880487 C38.8501242,6.21166931 39.9401076,8.93581879 41.3474338,9.99957107 L40.292053,9.99957107 C39.4424669,9.50544098 38.1908526,7.83003114 37.7683361,5.5172278 C37.5425083,7.3007286 36.3514487,9.26695458 35.3092715,10 Z M32.0488825,8.68875375 C31.1564983,8.88477584 29.8079056,9.22792173 28.6,9.22792173 L28.6,8.11269757 C29.912893,7.99794797 31.2179789,7.8143663 32.5091887,7.56280628 C33.0423427,6.12288031 33.5632036,4.15150714 33.5632036,1.94379223 L33.5632036,0.0916622598 L35.2478063,0.0916622598 L35.2478063,1.94893942 C35.2478063,4.40157471 35.6680464,5.69137435 36.0218129,6.30088724 L35.332947,7.90552324 C34.9068008,7.15786676 34.6068093,6.35226396 34.44375,5.51765674 C34.2334023,6.55781773 33.8445778,8.32716376 32.3789735,10 L31.3773179,10 C31.6274836,9.57531702 31.8517035,9.1375223 32.0488825,8.68875375 Z M28.8968543,6.88723779 L28.8968543,5.63346848 C29.5998344,4.9990775 30.168957,4.49293731 30.6042219,3.85854633 C30.2360375,3.88714182 29.5834437,3.90143957 28.6464404,3.90143957 L28.6464404,2.95006757 C29.4832781,2.02700511 30.0692467,1.26050297 30.4038907,0.0487690229 L31.9605546,0.0487690229 C31.492053,1.3179799 30.8223096,2.08448205 29.9517798,2.95006757 C30.3539502,2.9778964 30.7581583,2.96351026 31.1569536,2.90717433 C31.3577401,2.56102591 31.5252897,2.48639168 31.6577815,2.08276632 L33.0637417,2.08276632 C32.5283113,3.66981609 31.6067881,4.56671367 30.301904,5.63389741 C31.0587384,5.63283492 31.8143019,5.57546559 32.561548,5.46232446 L32.561548,6.15633704 C31.7192467,6.41970151 30.2358858,6.88637993 28.896399,6.88637993 L28.8968543,6.88723779 Z M46.3707368,1.59948881 L46.3707368,0.777654386 L47.7607616,0.777654386 L47.7607616,0.0857864739 L49.2559603,0.0857864739 L49.2559603,0.777654386 L51.1754967,0.777654386 L51.1754967,0.0857864739 L52.6706954,0.0857864739 L52.6706954,0.777654386 L54.165894,0.777654386 L54.165894,1.59948881 L52.6706954,1.59948881 L52.6706954,2.55043187 L54.4859685,2.55043187 L54.4859685,3.37183736 L50.9086921,3.37183736 L50.9086921,3.84923909 L53.9528146,3.84923909 L53.9528146,6.35634879 C53.9883278,7.30743483 53.454415,7.76853713 52.3510762,7.73965568 L46.4777318,7.73965568 L46.4777318,3.84923909 L49.5209437,3.84923909 L49.5209437,3.37183736 L46.1039321,3.37183736 L46.1039321,2.55043187 L47.7607616,2.55043187 L47.7607616,1.59948881 L46.3707368,1.59948881 Z M42.2593957,2.59289617 L42.2593957,1.72859745 L43.4887003,1.72859745 L43.4887003,0.0857864739 L44.9834437,0.0857864739 L44.9834437,1.72859745 L45.9978477,1.72859745 L45.9978477,2.59332511 L45.0367136,2.59332511 C45.2859134,3.68853242 45.6418046,4.5962963 46.1043874,5.31661672 L46.1043874,6.61327928 C45.6411976,6.03622226 45.2675497,5.53194077 44.9834437,5.10043481 L44.9834437,9.94265233 L43.488245,9.94265233 L43.488245,5.53322757 C43.3020281,6.12386744 42.8795116,6.93497855 42.3536424,7.57623245 L41.8418874,7.57623245 C42.6412003,6.00607205 43.1611008,4.32280414 43.3807947,2.59375404 L42.2593957,2.59289617 Z M54.0438742,9.95123098 C52.7842163,9.69387156 51.7414321,9.08607439 50.9155215,8.12783947 L52.7822434,8.12783947 C53.2807947,8.61768024 54.4081126,9.72861508 55,9.95123098 L54.0438742,9.95123098 Z M49.2541391,1.59948881 L49.2541391,2.55043187 L51.1754967,2.55043187 L51.1754967,1.59948881 L49.2541391,1.59948881 Z M47.8659354,7.0469299 L49.5209437,7.0469299 L49.5209437,6.18263118 L47.8659354,6.18263118 L47.8659354,7.0469299 Z M51.9235513,7.0469299 C52.3861341,7.07552539 52.5996689,6.88822493 52.5641556,6.4850285 L52.5641556,6.18263118 L50.9091474,6.18263118 L50.9091474,7.04735883 L51.9235513,7.0469299 Z M47.8659354,4.66935778 L47.8659354,5.49033433 L49.5209437,5.49033433 L49.5209437,4.66978671 L47.8659354,4.66935778 Z M46.5637831,9.95123098 L45.5753311,9.95123098 C46.2947403,9.40549051 46.9483673,8.78698114 47.5244619,8.10682179 L49.490894,8.10682179 C48.9126656,8.81498913 47.5331126,9.79424173 46.5637831,9.95123098 Z M50.9114238,4.66978671 L50.9114238,5.49033433 L52.5664321,5.49033433 L52.5664321,4.66978671 L50.9114238,4.66978671 Z M19.375207,5.49033433 L19.375207,0.778083319 L21.1663493,0.778083319 C21.3068847,0.576485105 21.3947572,0.317123999 21.4299669,0 L23.0631209,0 C23.0279111,0.0857864739 22.9928532,0.186585581 22.957947,0.302397321 C22.957947,0.388183795 22.9052842,0.546745794 22.7999586,0.778083319 L26.013452,0.778083319 L26.013452,4.06327634 C26.0486617,5.04324383 25.4871275,5.51878685 24.3288493,5.4899054 L22.6442467,5.4899054 C22.1889487,6.03750906 21.2757726,6.57067199 19.9047185,7.08939421 L22.4862583,7.08939421 L22.4862583,5.87894706 L24.0142384,5.87894706 L24.0142384,7.08939421 L26.5429636,7.08939421 L26.5429636,7.9970151 L24.0142384,7.9970151 L24.0142384,9.94265233 L22.4862583,9.94265233 L22.4862583,7.99744403 L18.8493377,7.99744403 L18.8493377,7.08939421 L19.5869205,7.08939421 L19.5869205,6.51634056 C20.2452815,6.2782831 20.9182119,5.77385863 21.1149007,5.4899054 L19.375207,5.49033433 Z M17.1647351,9.85600799 L17.1647351,5.36165462 L16.1630795,5.36165462 L16.1630795,5.79401845 C16.1630795,8.02446677 15.4801325,9.14612492 14.8427152,9.85557906 L13.9321192,9.85557906 C14.3537252,9.30783242 14.7921772,7.80142194 14.7921772,5.96859392 L14.7921772,0.432363829 L16.1630795,0.432363829 L16.1630795,2.46593219 L17.0586507,2.46593219 L17.0586507,0.171572948 L18.3230132,0.171572948 L18.3230132,2.4646454 L18.9026076,2.4646454 L18.9026076,3.32937305 L16.1630795,3.32937305 L16.1630795,4.5398202 L18.4286424,4.5398202 L18.4286424,9.85600799 L17.1647351,9.85600799 Z M23.9609685,4.62517774 C24.4879001,4.65377323 24.733761,4.43759132 24.6985513,3.976632 L24.6985513,3.50137493 L23.3813742,3.50137493 C23.3560591,3.88223764 23.2853469,4.25920881 23.1705712,4.62517774 L23.9609685,4.62517774 Z M20.641846,4.62517774 L21.7482202,4.62517774 C21.8887555,4.30805374 21.9590232,3.93345281 21.9590232,3.50137493 L20.641846,3.50137493 L20.641846,4.62517774 Z M20.641846,1.64238204 L20.641846,2.67996945 L21.9590232,2.67996945 L21.9590232,1.64281098 L20.641846,1.64238204 Z M24.6985513,1.64238204 L23.3813742,1.64238204 L23.3813742,2.67996945 L24.6985513,2.67996945 L24.6985513,1.64238204 Z" id="Combined-Shape"></path>
                    </g>
                </g>
            </g>
        </g>
    </g>
</svg>